<svg xmlns="http://www.w3.org/2000/svg" xmlns:xlink="http://www.w3.org/1999/xlink" width="20" height="25" viewBox="0 0 20 25">
    <defs>
        <path id="prefix__a" d="M0 0.203L19.986 0.203 19.986 24.745 0 24.745z"/>
    </defs>
    <g fill="none" fill-rule="evenodd">
        <path d="M0 0H25V25H0z" transform="translate(-3)"/>
        <g transform="translate(-3) translate(3)">
            <mask id="prefix__b" fill="#fff">
                <use xlink:href="#prefix__a"/>
            </mask>
            <path fill="#F26100" d="M1.967 5.037c.049 13.077 7.122 17.025 8.056 17.49.94-.465 7.991-4.388 8-17.517-2.095-.034-3.325-.794-4.516-1.53-1.042-.642-2.025-1.248-3.508-1.248h-.008c-1.487.002-2.465.612-3.501 1.258-1.194.743-2.42 1.506-4.523 1.547zm8.052 19.708l-.698-.319C8.944 24.255.026 20.036.003 4.958L0 3.013l1.8-.003c1.66-.003 2.547-.555 3.67-1.253C6.637 1.027 7.955.207 9.986.203H10c2.024 0 3.345.815 4.512 1.535 1.127.696 2.016 1.245 3.658 1.245h.012l1.801-.003.003 1.946c.024 15.147-8.89 19.332-9.27 19.503l-.697.316z" mask="url(#prefix__b)"/>
        </g>
        <path fill="#F26100" fill-rule="nonzero" d="M14.662 17.5V5.04h-2.275c-.035.222-.11.38-.227.473-.117.093-.297.14-.543.14H10.27V7.98h1.593v9.52h2.8z" transform="translate(-3)"/>
    </g>
</svg>
